<svg width="83" height="25" viewBox="0 0 83 25" fill="none" xmlns="http://www.w3.org/2000/svg">
<path d="M14.5429 -0.00549558V3.5084H9.77221V18H5.38626V3.5084H0.615572V-0.00549558H14.5429ZM21.13 6.07328C21.643 5.28672 22.2842 4.67115 23.0537 4.22657C23.8232 3.76489 24.6781 3.53405 25.6186 3.53405V8.17649H24.4131C23.3187 8.17649 22.498 8.41588 21.9508 8.89466C21.4036 9.35634 21.13 10.1771 21.13 11.3569V18H16.7441V3.68794H21.13V6.07328ZM26.8429 10.8183C26.8429 9.34779 27.1165 8.05679 27.6637 6.94534C28.228 5.83389 28.9889 4.97893 29.9464 4.38046C30.904 3.78198 31.9727 3.48275 33.1525 3.48275C34.1614 3.48275 35.042 3.68794 35.7944 4.09832C36.5638 4.5087 37.1538 5.04733 37.5641 5.7142V3.68794H41.9501V18H37.5641V15.9737C37.1367 16.6406 36.5382 17.1792 35.7687 17.5896C35.0164 18 34.1358 18.2052 33.1269 18.2052C31.9641 18.2052 30.904 17.906 29.9464 17.3075C28.9889 16.6919 28.228 15.8284 27.6637 14.7169C27.1165 13.5884 26.8429 12.2889 26.8429 10.8183ZM37.5641 10.844C37.5641 9.74962 37.2564 8.88611 36.6408 8.25344C36.0423 7.62076 35.307 7.30443 34.435 7.30443C33.5629 7.30443 32.8191 7.62076 32.2035 8.25344C31.6051 8.86901 31.3058 9.72397 31.3058 10.8183C31.3058 11.9127 31.6051 12.7847 32.2035 13.4345C32.8191 14.0672 33.5629 14.3835 34.435 14.3835C35.307 14.3835 36.0423 14.0672 36.6408 13.4345C37.2564 12.8018 37.5641 11.9383 37.5641 10.844ZM59.743 3.68794L50.7659 24.7969H46.0465L49.3296 17.5127L43.5073 3.68794H48.4062L51.7149 12.6394L54.998 3.68794H59.743ZM60.457 10.8183C60.457 9.34779 60.7305 8.05679 61.2777 6.94534C61.842 5.83389 62.6029 4.97893 63.5605 4.38046C64.518 3.78198 65.5867 3.48275 66.7666 3.48275C67.7754 3.48275 68.656 3.68794 69.4084 4.09832C70.1779 4.5087 70.7678 5.04733 71.1782 5.7142V3.68794H75.5641V18H71.1782V15.9737C70.7507 16.6406 70.1522 17.1792 69.3828 17.5896C68.6304 18 67.7498 18.2052 66.7409 18.2052C65.5782 18.2052 64.518 17.906 63.5605 17.3075C62.6029 16.6919 61.842 15.8284 61.2777 14.7169C60.7305 13.5884 60.457 12.2889 60.457 10.8183ZM71.1782 10.844C71.1782 9.74962 70.8704 8.88611 70.2548 8.25344C69.6563 7.62076 68.9211 7.30443 68.049 7.30443C67.177 7.30443 66.4331 7.62076 65.8176 8.25344C65.2191 8.86901 64.9199 9.72397 64.9199 10.8183C64.9199 11.9127 65.2191 12.7847 65.8176 13.4345C66.4331 14.0672 67.177 14.3835 68.049 14.3835C68.9211 14.3835 69.6563 14.0672 70.2548 13.4345C70.8704 12.8018 71.1782 11.9383 71.1782 10.844ZM82.7127 13.5371V18H78.1729V13.5371H82.7127Z" fill="#212121"/>
</svg>
